<?xml version="1.0" encoding="UTF-8" standalone="no"?>
<!-- Generator: Adobe Illustrator 19.0.0, SVG Export Plug-In . SVG Version: 6.00 Build 0)  -->

<svg
   version="1.1"
   id="Layer_1"
   x="0px"
   y="0px"
   viewBox="0 0 512 512"
   style="enable-background:new 0 0 512 512;"
   xml:space="preserve"
   sodipodi:docname="email-icon.svg"
   inkscape:version="1.2.1 (9c6d41e410, 2022-07-14)"
   xmlns:inkscape="http://www.inkscape.org/namespaces/inkscape"
   xmlns:sodipodi="http://sodipodi.sourceforge.net/DTD/sodipodi-0.dtd"
   xmlns:xlink="http://www.w3.org/1999/xlink"
   xmlns="http://www.w3.org/2000/svg"
   xmlns:svg="http://www.w3.org/2000/svg"><defs
   id="defs112"><linearGradient
     inkscape:collect="always"
     id="linearGradient1007"><stop
       style="stop-color:#0d0d0d;stop-opacity:1;"
       offset="0"
       id="stop1003" /><stop
       style="stop-color:#262626;stop-opacity:1;"
       offset="1"
       id="stop1005" /></linearGradient><linearGradient
     inkscape:collect="always"
     id="linearGradient976"><stop
       style="stop-color:#ffffff;stop-opacity:1;"
       offset="0"
       id="stop972" /><stop
       style="stop-color:#ffffff;stop-opacity:1;"
       offset="1"
       id="stop974" /></linearGradient><linearGradient
     inkscape:collect="always"
     xlink:href="#linearGradient976"
     id="linearGradient978"
     x1="0.00045806388"
     y1="256.00055"
     x2="511.99985"
     y2="256.00055"
     gradientUnits="userSpaceOnUse" /><linearGradient
     inkscape:collect="always"
     xlink:href="#linearGradient1007"
     id="linearGradient1009"
     x1="-0.99939228"
     y1="256.00075"
     x2="512.99944"
     y2="256.00075"
     gradientUnits="userSpaceOnUse" /></defs><sodipodi:namedview
   id="namedview110"
   pagecolor="#505050"
   bordercolor="#ffffff"
   borderopacity="1"
   inkscape:showpageshadow="0"
   inkscape:pageopacity="0"
   inkscape:pagecheckerboard="1"
   inkscape:deskcolor="#505050"
   showgrid="false"
   inkscape:zoom="1.6699219"
   inkscape:cx="235.63977"
   inkscape:cy="256.29942"
   inkscape:window-width="2560"
   inkscape:window-height="1009"
   inkscape:window-x="-8"
   inkscape:window-y="-8"
   inkscape:window-maximized="1"
   inkscape:current-layer="Layer_1" />
<g
   id="g77"
   style="fill-opacity:1;fill:#ffffff;stroke:url(#linearGradient1009);stroke-opacity:1;stroke-width:2;stroke-dasharray:none;stroke-linejoin:round">
	<g
   id="g75"
   style="fill-opacity:1;fill:#ffffff;stroke:url(#linearGradient1009);stroke-opacity:1;stroke-width:2;stroke-dasharray:none;stroke-linejoin:round">
		<path
   d="M508.645,18.449c-2.929-2.704-7.133-3.51-10.826-2.085L6.715,204.446c-3.541,1.356-6.066,4.515-6.607,8.264    c-0.541,3.75,0.985,7.496,3.995,9.796l152.127,116.747c-0.004,0.116-0.575,0.224-0.575,0.342v83.592    c0,3.851,2.663,7.393,6.061,9.213c1.541,0.827,3.51,1.236,5.199,1.236c2.026,0,4.181-0.593,5.931-1.756l56.12-37.367    l130.369,99.669c1.848,1.413,4.099,2.149,6.365,2.149c1.087,0,2.186-0.169,3.248-0.516c3.27-1.066,5.811-3.672,6.786-6.974    L511.571,29.082C512.698,25.271,511.563,21.148,508.645,18.449z M170.506,321.508c-0.385,0.36-0.7,0.763-1.019,1.163    L31.659,217.272L456.525,54.557L170.506,321.508z M176.552,403.661v-48.454l33.852,25.887L176.552,403.661z M359.996,468.354    l-121.63-93.012c-1.263-1.77-2.975-3.029-4.883-3.733l-47.29-36.163L480.392,60.86L359.996,468.354z"
   id="path73"
   style="fill-opacity:1;fill:#ffffff;stroke:url(#linearGradient1009);stroke-opacity:1;stroke-width:2;stroke-dasharray:none;stroke-linejoin:round" />
	</g>
</g>
<g
   id="g79">
</g>
<g
   id="g81">
</g>
<g
   id="g83">
</g>
<g
   id="g85">
</g>
<g
   id="g87">
</g>
<g
   id="g89">
</g>
<g
   id="g91">
</g>
<g
   id="g93">
</g>
<g
   id="g95">
</g>
<g
   id="g97">
</g>
<g
   id="g99">
</g>
<g
   id="g101">
</g>
<g
   id="g103">
</g>
<g
   id="g105">
</g>
<g
   id="g107">
</g>
</svg>
