<?xml version="1.0" encoding="UTF-8" standalone="no"?>
<!-- Generator: Adobe Illustrator 26.5.0, SVG Export Plug-In . SVG Version: 6.00 Build 0)  -->

<svg
   version="1.1"
   id="Layer_1"
   x="0px"
   y="0px"
   viewBox="0 157 398.92657 355.55743"
   xml:space="preserve"
   sodipodi:docname="flask-logo.svg"
   width="398.92657"
   height="355.55743"
   inkscape:version="1.2.1 (9c6d41e410, 2022-07-14)"
   xmlns:inkscape="http://www.inkscape.org/namespaces/inkscape"
   xmlns:sodipodi="http://sodipodi.sourceforge.net/DTD/sodipodi-0.dtd"
   xmlns="http://www.w3.org/2000/svg"
   xmlns:svg="http://www.w3.org/2000/svg"><defs
   id="defs14" /><sodipodi:namedview
   id="namedview12"
   pagecolor="#505050"
   bordercolor="#ffffff"
   borderopacity="1"
   inkscape:showpageshadow="0"
   inkscape:pageopacity="0"
   inkscape:pagecheckerboard="1"
   inkscape:deskcolor="#505050"
   showgrid="false"
   inkscape:zoom="1.2736842"
   inkscape:cx="125.22727"
   inkscape:cy="174.29752"
   inkscape:window-width="2560"
   inkscape:window-height="1009"
   inkscape:window-x="-8"
   inkscape:window-y="-8"
   inkscape:window-maximized="1"
   inkscape:current-layer="Layer_1" />
<g
   id="XMLID_155_"
   transform="translate(-56.599237,157.08743)">
	<path
   id="XMLID_200_"
   stroke="darkgrey"
   stroke-width="1.5"
   d="M 175.73,316.64 C 160.58,304.72 144.31,293.21 133.22,277.08 109.93,248.6 91.98,215.77 79.77,181.12 72.33,158.67 69.81,134.54 60.27,112.8 50.31,97.09 61.95,79.97 79.21,74.92 c 7.72,-1.54 21.18,-8.7 4.91,-3.51 -14.59,10.66 -15.99,-9.68 -0.98,-10.94 10.24,-1.4 14.03,-9.68 10.52,-17.26 -10.94,-7.15 26.51,-15.01 7.72,-25.67 -19.64,-21.18 27.5,-25.25 15.85,-1.26 -2.81,18.52 32.97,-3.37 24.69,17.96 8.42,10.24 31.56,2.38 31,16.69 12.35,0.84 16.55,11.22 28.06,11.92 11.92,5.33 33.67,9.68 37.6,23.15 -11.78,9.4 -39.28,-19.36 -40.54,6.59 3.65,38.3 2.67,77.86 16.69,114.47 6.59,22.17 22.73,39.56 37.32,56.82 13.89,16.83 32.69,28.76 51.91,38.72 16.83,8 34.93,13.19 53.31,16.55 7.44,-5.75 20.62,-26.79 32.27,-17.96 0.56,10.1 -23.01,21.04 -1.12,19.92 12.91,-3.93 21.88,9.96 32.41,-2.53 9.82,11.64 40.68,-7.44 33.67,16.27 -9.4,6.03 -23.15,2.38 -32.55,10.8 -15.57,-7.72 -27.92,6.87 -45.03,5.05 -19.08,3.37 -38.58,4.77 -57.94,4.77 -31.7,-2.53 -64.25,-3.51 -94.41,-14.59 C 207.3,336 190.74,326.32 175.73,316.64 Z m 26.94,11.64 c 16.55,7.15 32.83,14.73 51.06,17.11 28.9,4.07 58.78,10.24 87.68,4.63 -13.19,-5.89 -26.65,2.24 -39.84,-4.21 -15.71,3.37 -32.55,-0.84 -48.4,-2.95 -18.1,-8.14 -37.74,-13.61 -54.71,-24.13 -21.18,-7.72 10.94,9.96 16.69,11.36 13.33,7.58 -14.59,-3.93 -18.52,-7.01 -11.08,-6.17 -12.49,-4.91 -1.12,1.4 2.39,1.28 4.63,2.68 7.16,3.8 z m -31.71,-22.3 c 16.13,6.03 -0.14,-11.36 -7.44,-10.38 -3.23,-5.61 -12.49,-9.26 -6.03,-12.35 -11.64,4.07 -12.2,-15.43 -17.82,-12.63 -12.35,-3.93 -4.77,-17.82 -19.64,-26.23 -1.4,-8.98 -14.59,-16.69 -18.94,-30.3 -1.82,-6.87 -15.01,-26.79 -7.01,-8.28 6.87,17.82 18.94,33.11 29.04,48.26 7.86,14.45 17.11,29.6 31.28,38.72 5.2,4.63 9.83,11.64 16.56,13.19 z m 70.99,29.88 c 6.59,4.21 38.58,9.12 18.52,1.68 -3.37,0.7 -37.04,-9.54 -18.52,-1.68 z M 169,276.66 c 7.72,5.89 31.28,0.7 11.78,-3.51 -8.84,-4.63 -28.62,-7.86 -15.15,2.81 z m 37.46,19.92 c 18.94,5.33 -15.85,-11.92 -4.63,-1.96 l 2.53,1.12 z m 0.14,-10.1 c 13.75,1.82 -16.41,-9.4 -3.09,-0.98 z m 47.83,29.46 c 12.91,-7.72 8.56,17.96 21.74,2.1 13.05,-9.54 -11.22,11.78 4.77,1.68 11.64,-7.72 28.76,3.65 39.56,7.44 7.72,-0.42 15.29,6.73 23.29,2.38 15.29,-4.07 -30.02,-6.17 -18.1,-13.47 -14.03,4.07 -24.41,-4.91 -31.28,-13.89 -15.71,-3.65 -33.95,-11.64 -41.81,-25.67 -3.23,-5.19 4.63,0.7 -2.81,-7.86 -9.54,-8.42 -14.17,-17.96 -20.62,-28.2 -7.58,-4.07 -8.56,-15.99 -9.26,-0.42 0,-9.82 -9.12,-16.41 -11.5,-13.75 0,-9.54 9.96,-4.77 2.95,-11.78 -1.54,-9.82 -6.45,-20.06 -7.86,-31.14 -2.24,-5.33 -0.28,-16.83 -7.86,-4.63 -2.81,12.77 -0.84,-15.71 3.37,-6.31 5.61,-9.54 -1.96,-8.42 -2.38,-7.15 3.65,-8.14 2.24,-19.64 -0.98,-15.15 1.96,-8.56 3.09,-31.56 -2.95,-27.5 3.65,-8.98 6.87,-41.1 -8.84,-28.9 -6.31,0.14 -17.4,2.24 -22.59,4.91 16.41,8.98 -1.68,3.23 -8.28,1.82 -0.84,8.42 -7.44,4.77 -15.71,4.77 13.19,1.68 -6.45,13.47 -14.03,8.84 -9.82,4.63 8.42,16.41 0.14,20.06 0.98,5.47 -15.01,-1.96 -13.75,10.66 -9.54,-4.07 -1.26,15.01 3.51,8.56 16.13,4.35 11.36,14.31 11.78,23.85 -2.67,5.47 -13.05,-13.05 -2.24,-12.2 -8.42,-13.75 -9.4,-4.91 -16.41,1.4 -1.68,0.42 17.96,9.12 5.61,13.33 10.8,1.68 11.08,11.08 13.33,17.11 6.45,6.73 5.19,-7.44 12.91,0.7 -4.91,-7.29 -26.09,-20.34 -8.98,-16.13 -0.14,-7.29 -3.09,-13.19 2.1,-13.05 5.19,-9.4 -5.47,23.01 6.17,11.22 3.23,-1.4 4.07,-9.4 9.82,0.7 8.42,8.28 3.09,14.31 -8.84,6.73 2.1,7.15 15.85,9.82 13.33,21.04 2.81,9.96 6.59,6.31 9.96,5.61 2.67,9.68 4.07,2.53 4.21,-2.1 11.92,2.53 9.12,9.68 12.91,14.59 8.28,3.79 -11.78,-25.25 2.38,-8.7 14.87,13.47 5.61,19.08 -7.86,16.97 8.42,-0.7 11.22,11.5 21.74,11.08 9.68,4.63 16.27,22.31 -0.42,14.87 -5.75,-5.19 -26.23,-11.64 -9.54,-1.68 15.43,7.15 27.64,11.36 42.51,20.34 10.66,7.58 15.29,16.27 19.22,17.96 -8.98,4.21 -26.94,-3.37 -13.61,-5.75 -8.42,-1.54 -17.68,-5.75 -9.68,4.63 6.73,5.75 24.13,5.05 27.22,5.75 -2.67,5.75 -7.15,6.31 0.14,6.73 -7.84,4.37 2.82,5.07 3.52,7.6 z m -16.55,-46.72 c -4.91,-5.19 -6.17,-14.73 -0.84,-6.45 2.66,1.26 8.7,15.85 0.84,6.45 z m -31.42,-51.91 c -5.89,-13.05 4.21,-7.15 1.26,2.1 z M 152.45,181.4 c -2.67,-4.35 -7.01,-16.97 -5.61,-20.76 1.26,6.31 13.33,27.08 5.89,8.56 -8.14,-15.43 9.82,5.05 11.64,8.84 0.84,3.79 -5.05,-0.98 -0.98,8 -7.3,-10.25 -4.21,5.6 -10.94,-4.64 z m -27.22,-22.87 c -6.17,-6.17 -10.66,-11.78 0.28,-3.79 4.21,0.14 -9.4,-12.91 0.98,-4.21 11.08,2.11 5.47,17.96 -1.26,8 z m 3.79,-9.39 c -18.1,-15.99 22.59,8.42 2.95,2.95 z m 51.62,30.02 c -7.86,-4.63 -2.1,-32.97 0.56,-13.61 7.58,-2.53 -0.42,9.96 5.19,9.82 -0.7,7.85 -3.36,10.66 -5.75,3.79 z M 132.52,143.8 c -11.64,-15.99 33.67,16.13 7.44,4.07 -2.67,-0.7 -6.03,-0.98 -7.44,-4.07 z m 1.83,-6.03 c 6.87,-1.54 28.48,12.06 8.7,3.93 -2.25,-2.53 -7.02,-1.4 -8.7,-3.93 z m 59.06,29.46 c 0.7,-13.75 4.07,-8.28 0,1.96 z M 139.4,133 c 2.81,-4.07 -7.44,-18.66 1.54,-5.19 3.93,3.09 11.22,5.19 4.77,6.45 10.1,8.84 -2.52,2.39 -6.31,-1.26 z m 44.89,-7.43 c -3.65,-6.31 4.49,-27.78 5.47,-14.45 -3.79,10.38 -1.12,16.13 1.54,2.24 4.91,-10.94 -0.98,21.61 -7.01,12.21 z m 14.87,153.61 c 10.24,2.67 10.24,-1.54 0.98,-2.81 -4.91,-4.63 -20.76,-9.54 -6.59,-0.56 0.84,2.39 3.79,2.25 5.61,3.37 z m -36.33,-24.13 c 5.61,4.21 21.32,11.92 8,1.54 4.49,-5.19 -8.56,-8 -4.21,-11.36 -10.94,-6.73 -8.7,-6.17 -0.98,-5.89 -13.19,-5.89 1.96,-5.47 1.12,-8.42 -5.05,-0.98 -25.25,-8.98 -13.33,0.7 -12.06,-6.17 -2.81,2.24 -6.45,1.4 -12.35,-3.37 10.94,9.4 -1.96,6.17 7.01,5.61 19.08,14.31 2.95,5.89 -2.12,3.1 11.49,7.73 14.86,9.97 z m 128.08,75.05 c 5.47,-5.19 0.28,8.42 8.98,-1.26 0.14,-6.87 -0.28,-10.94 -10.1,-2.53 -2.67,1.55 -3.93,7.86 1.12,3.79 z m -88.52,-56.81 c 6.03,5.33 27.64,3.93 7.29,0.7 -3.08,-4.49 -19.22,-3.37 -7.29,-0.7 z m -99.19,-66.5 c -8.7,-12.49 -5.47,-18.1 -13.89,-28.2 -1.54,-7.86 -14.45,-25.39 -6.59,-6.73 7.16,10.8 9.26,27.78 20.48,34.93 z m 211.28,126.96 c 9.12,-5.89 -2.1,-5.05 -1.68,0.56 z m 14.73,3.93 c 11.78,-8.42 -7.15,-1.68 -2.38,1.54 z M 132.52,212.4 c 8.56,1.96 34.37,21.18 19.08,1.4 -7.72,-2.24 -3.09,-21.32 -11.08,-17.96 5.33,8.84 4.35,12.63 -6.73,7.01 -14.03,-6.87 -7.86,3.37 -5.19,6.17 -3.65,0.86 5.05,3.24 3.92,3.38 z M 93.38,181.54 c 1.54,-6.31 -14.17,-34.93 -7.44,-14.31 2.53,4.21 2.25,12.49 7.44,14.31 z m 268.79,148.28 c 8.56,-1.68 27.92,4.35 31,-2.24 -10.38,-0.28 -35.77,-7.29 -36.9,1.68 l 2.24,0.42 z M 97.31,144.93 c 8.56,-3.37 -15.57,-7.01 -1.68,-0.56 z M 70.52,115.05 c -1.54,-8.84 -1.4,-24.41 13.47,-19.22 -19.78,3.93 13.75,24.55 9.54,8.28 8.28,0.42 16.27,-4.91 11.92,3.23 16.41,-1.82 27.78,-15.99 43.63,-14.03 12.35,-1.68 25.81,-2.81 39.14,-7.86 10.94,-0.84 21.46,-12.49 15.43,-19.5 -14.87,-1.26 -30.44,0.56 -47,3.93 -18.24,3.79 -34.79,10.94 -53.17,14.03 -17.96,2.38 3.65,6.59 -1.54,7.58 -9.4,3.23 11.22,5.47 -1.26,8.84 -7.58,-1.4 -15.57,-4.07 -12.35,-12.2 -17.26,2.24 -32.27,9.4 -18.66,26.79 z m 41.52,-21.19 c 4.07,-14.87 21.6,12.2 6.59,1.96 -1.82,-1.26 -4.76,-2.38 -6.59,-1.96 z m 8.14,-7.01 c 0.56,-6.87 16.97,3.65 2.67,2.53 z m 12.62,-5.89 c 6.17,-7.44 34.79,-4.77 13.89,-0.7 -5.61,-4.21 -9.96,2.52 -13.89,0.7 z m 47.98,-5.76 c 3.93,-10.1 15.01,-4.07 1.82,-2.1 0.29,1.12 -0.41,5.33 -1.82,2.1 z m 249.57,254.76 c 9.26,0 28.06,-2.95 7.86,-2.81 -3.09,0.43 -18.38,0.29 -7.86,2.81 z M 111.34,127.25 c 7.44,-0.56 11.78,-8.28 -1.4,-7.86 -20.48,-2.1 17.96,7.01 -2.67,4.35 -2.8,1.97 3.93,4.07 4.07,3.51 z M 100.82,68.19 c 13.33,-4.49 31.7,-9.68 38.02,2.24 -6.45,-7.72 -2.67,-15.29 3.51,-4.07 8.56,11.5 12.91,-5.19 7.29,-8.98 6.31,7.86 13.61,11.64 4.21,0.56 10.1,-12.2 -20.34,1.54 -27.22,1.4 -3.36,1.41 -34.37,7.87 -25.81,8.85 z m 7.86,-15.01 c 7.58,-5.75 26.37,3.37 14.31,-5.75 -1.13,-1.13 -26.38,6.87 -14.31,5.75 z m 27.77,1.12 c 8.98,0.28 -3.79,-12.06 6.73,-6.45 -1.68,-5.75 -12.35,-6.73 -17.54,-9.12 -2.94,5.19 6.04,15.57 10.81,15.57 z M 124.95,31.72 C 139.4,29.76 121.3,25.55 122,31.58 Z M 103.63,15.16 c -10.1,-13.19 19.08,2.24 8.7,-11.64 -8.56,-6.88 -16.84,7.71 -8.7,11.64 z m 130.04,70 c 4.63,-8.28 -19.22,-11.08 -3.09,-2.95 1.41,0.57 1.13,3.52 3.09,2.95 z" />
</g>
</svg>
