<?xml version="1.0" encoding="UTF-8" standalone="no"?>
<svg
   aria-label="Docker"
   role="img"
   viewBox="0 0 405.47122 282"
   version="1.1"
   id="svg15"
   sodipodi:docname="docker-logo.svg"
   width="405.47122"
   height="282"
   inkscape:version="1.2.1 (9c6d41e410, 2022-07-14)"
   xmlns:inkscape="http://www.inkscape.org/namespaces/inkscape"
   xmlns:sodipodi="http://sodipodi.sourceforge.net/DTD/sodipodi-0.dtd"
   xmlns="http://www.w3.org/2000/svg"
   xmlns:svg="http://www.w3.org/2000/svg">
  <defs
     id="defs19" />
  <sodipodi:namedview
     id="namedview17"
     pagecolor="#505050"
     bordercolor="#ffffff"
     borderopacity="1"
     inkscape:showpageshadow="0"
     inkscape:pageopacity="0"
     inkscape:pagecheckerboard="1"
     inkscape:deskcolor="#505050"
     showgrid="false"
     inkscape:zoom="1.625"
     inkscape:cx="189.23077"
     inkscape:cy="140.92308"
     inkscape:window-width="2560"
     inkscape:window-height="1009"
     inkscape:window-x="-8"
     inkscape:window-y="-8"
     inkscape:window-maximized="1"
     inkscape:current-layer="svg15" />
  <path
     stroke="#066da5"
     stroke-width="38"
     d="m 229.47123,111 h 42 m -92,0 h 42 m -91,0 h 42 m -90.999997,0 h 40.999997 m -90.999997,0 h 42 m 8,-46 h 40.999997 m 8,0 h 42 m 7,0 h 42 m -42,-46 h 42"
     id="path11" />
  <path
     fill="#066da5"
     d="m 405.47123,113 c 0,0 -18,-17 -55,-11 -4,-29 -35,-46 -35,-46 0,0 -29,35 -8,74 -6,3 -16,7 -31,7 H 1.4712327 c -5,19 -5,145 132.9999973,145 99,0 173,-46 208,-130 52,4 63,-39 63,-39"
     id="path13" />
</svg>
